<svg viewBox="0 0 1024 1024" xmlns="http://www.w3.org/2000/svg"><path d="m139.63 173.57a34 34 0 0 1 33.94-33.94h676.86a34 34 0 0 1 33.94 33.94v676.86a34 34 0 0 1 -33.94 33.94h-676.86a34 34 0 0 1 -33.94-33.94zm67.71 643.1h609.33v-609.33h-609.33zm0-541.62h609.33v67.7h-609.33zm0 406.22h609.33v67.73h-609.33zm67.66-473.93h67.7v67.71h-67.7zm135.41 0h67.7v67.71h-67.7zm135.4 0h67.71v67.71h-67.67zm135.41 0h67.78v67.71h-67.7zm-406.22 541.66h67.7v67.7h-67.7zm135.41 0h67.7v67.7h-67.7zm135.4 0h67.71v67.7h-67.67zm135.41 0h67.78v67.7h-67.7z"/></svg>