<svg viewBox="0 0 1024 1024" xmlns="http://www.w3.org/2000/svg"><path d="m850.43 139.63h-574.38l59.13 67.71 7.56 8.66v-8.66h67.71v67.71h-16.14l59.12 67.7h363.24v338.52h-67.67l59.16 67.73h8.51v9.74l67.7 77.53v-662.7a34 34 0 0 0 -33.94-33.94zm-372.27 135.42v-67.71h67.69v67.71zm135.4 0v-67.71h67.7v67.71zm203.11 0h-67.67v-67.71h67.71z" /><path d="m715.85 816.67-34.59-39.6v39.6h-67.7v-67.67h43.17l-59.12-67.7h-390.27v-338.55h94.66l-59.12-67.7h-35.54v-40.7l-64.9-74.35a33.85 33.85 0 0 0 -2.81 13.53v676.9a34 34 0 0 0 33.94 33.94h601.43l-59.12-67.7zm-508.51 0v-67.67h67.66v67.69zm135.4 0v-67.67h67.71v67.69zm135.42 0v-67.67h67.69v67.7z"/><path d="m954.26 942.32h-105.46l-767.82-876.87h105.46z"/></svg>