<svg data-name="Layer 1" xmlns="http://www.w3.org/2000/svg" viewBox="0 0 1024 1024"><path d="M745.06 659.89v-34.47c0-1.74.28-2.34 2.26-2.45 39.45-2.17 70.59-19.16 92-52.69 13.27-20.81 18.26-43.85 16.24-68.39-3.93-47.67-40.43-88.72-87.23-98.27a120.4 120.4 0 0 0-21.33-2.45c-1.56 0-2-.53-2-2q.06-35.1 0-70.2c0-2.17 1.18-1.93 2.54-1.9 39.91.62 76.06 12.64 108 36.57 38.27 28.71 62.32 66.76 71.32 113.75 18.58 96.92-42.45 191.3-138.28 214.49a193 193 0 0 1-40.76 5.12c-2.41.06-2.82-.75-2.8-2.92.1-11.37.04-22.78.04-34.19zM671.2 174.85a57.47 57.47 0 0 0-4-19.68c-6.16-15-18.93-21.91-34.75-18.91-8.5 1.62-16 5.43-23.11 10.16Q521.71 204.86 434 263.26c-13.61 9.07-27 18.49-41 26.94-22.86 13.78-47.87 22.48-73.66 29-15.81 4-31.82 6.9-48.16 7.55-14.07.57-28.14.17-42.22.25a84.41 84.41 0 0 0-19.59 2.24c-32 7.77-55.81 37.32-55.88 70.27q-.24 112.55-.06 225.09a63.34 63.34 0 0 0 1.18 11.9 74.27 74.27 0 0 0 73.21 60.5h38a166.32 166.32 0 0 1 22.18 1.64 291.85 291.85 0 0 1 48.51 10.91c22.84 7.15 44.9 16.09 64.9 29.45l207 138a81.33 81.33 0 0 0 13.69 7.6c6.93 2.91 14.12 4.62 21.64 3.54 11.68-1.66 19-8.82 23.38-19.37 3.34-8 4.14-16.53 4.14-25.17V182.34c.02-2.49.04-5-.06-7.49zm-74.09 604.84c-1.21.22-1.85-.7-2.63-1.21-48.61-32.38-97.37-64.54-145.75-97.26-27.53-18.62-57.28-32.22-88.84-42.16A373.56 373.56 0 0 0 298 625.12a250.45 250.45 0 0 0-32.84-2.33c-11.81 0-23.62-.09-35.42 0-2 0-2.31-.55-2.3-2.36q.13-46.59.15-93.16.1-61.08.24-122.14a7.73 7.73 0 0 0-.39-3.63 5.5 5.5 0 0 1 2.84-.31c7.75 0 15.5-.18 23.24 0 27 .67 53.59-2.69 79.81-9 32.2-7.77 63.17-18.86 92.18-35C442 348 457.31 336.82 473 326.38q60.86-40.38 121.52-80.94a4.64 4.64 0 0 1 2.59-1.27z"/></svg>