<svg viewBox="0 0 1024 1024" xmlns="http://www.w3.org/2000/svg"><path d="m473 326.38q60.86-40.38 121.52-80.94a4.64 4.64 0 0 1 2.59-1.27v255.66l74.15 84.68v-402.18c0-2.49 0-5-.08-7.49a57.47 57.47 0 0 0 -4-19.68c-6.16-15-18.93-21.93-34.75-18.91-8.5 1.62-16 5.43-23.11 10.16l-175.32 116.84c-9.26 6.17-18.43 12.51-27.76 18.59l49.35 56.36c5.81-3.95 11.6-7.94 17.41-11.82z"/><path d="m597.11 779.69c-1.21.22-1.85-.7-2.63-1.21-48.61-32.38-97.37-64.54-145.75-97.26-27.53-18.62-57.28-32.22-88.84-42.16a373.56 373.56 0 0 0 -61.89-13.94 250.45 250.45 0 0 0 -32.84-2.33c-11.81 0-23.62-.09-35.42 0-2 0-2.31-.55-2.3-2.36q.13-46.59.15-93.16.1-61.08.24-122.14a7.73 7.73 0 0 0 -.39-3.63 5.5 5.5 0 0 1 2.84-.31c7.75 0 15.5-.18 23.24 0 27 .67 53.59-2.69 79.81-9l.67-.19-57.37-65.57c-1.8.12-3.6.23-5.41.3-14.07.57-28.14.17-42.22.25a84.39 84.39 0 0 0 -19.52 2.21c-32 7.77-55.81 37.32-55.88 70.27-.16 75 0 150.06-.06 225.09a63.42 63.42 0 0 0 1.18 11.9 74.28 74.28 0 0 0 73.13 60.55h38a167.55 167.55 0 0 1 22.15 1.64 291.09 291.09 0 0 1 48.54 10.87c22.84 7.15 44.87 16.09 64.9 29.45l207 138a81.27 81.27 0 0 0 13.71 7.63c6.93 2.91 14.12 4.62 21.64 3.54 11.68-1.66 19-8.82 23.38-19.37 3.34-8 4.14-16.53 4.14-25.17v-66l-74.16-84.77z"/><path d="m788.57 691.87c95.83-23.19 156.86-117.57 138.28-214.49-9-47-33.05-85-71.32-113.75-31.91-23.93-68.06-35.95-108-36.57-1.36 0-2.54-.27-2.54 1.9q.1 35.1 0 70.2c0 1.48.4 2 2 2a121.61 121.61 0 0 1 21.27 2.45c46.8 9.55 83.3 50.6 87.23 98.27 2 24.54-3 47.58-16.24 68.39-21.38 33.53-52.52 50.52-92 52.69-2 .11-2.27.71-2.26 2.45.07 11.49 0 23 0 34.47v8.92l23.39 26.71a179.82 179.82 0 0 0 20.19-3.64z"/><path d="m954.26 942.32h-105.46l-767.82-876.87h105.46z"/></svg>